<svg xmlns="http://www.w3.org/2000/svg" viewBox="0 0 256 256" role="img" aria-label="VitaCoat logo mark"><defs><radialGradient id="blue" cx="38%" cy="34%" r="70%"><stop offset="0" stop-color="#8ff4ff"/><stop offset="0.48" stop-color="#10b8df"/><stop offset="1" stop-color="#0179b7"/></radialGradient><radialGradient id="green" cx="35%" cy="30%" r="70%"><stop offset="0" stop-color="#d7ff7b"/><stop offset="0.5" stop-color="#7edb11"/><stop offset="1" stop-color="#279900"/></radialGradient><filter id="shadow" x="-20%" y="-20%" width="140%" height="140%"><feDropShadow dx="0" dy="5" stdDeviation="5" flood-color="#007caa" flood-opacity=".25"/></filter></defs><g filter="url(#shadow)"><path d="M28 165C44 68 126 24 221 29 139 50 83 87 62 143c38-34 88-50 160-35-60 14-105 37-136 70 37 5 79-3 125-25-53 50-116 76-178 53-9-3-12-20-5-41Z" fill="url(#blue)"/><path d="M46 174C91 157 142 140 214 123 153 146 108 171 69 203c-14-3-22-12-23-29Z" fill="#eaffff" opacity=".9"/><circle cx="111" cy="125" r="27" fill="url(#blue)"/><g fill="url(#green)"><circle cx="178" cy="83" r="29"/><circle cx="181" cy="150" r="20"/></g><g stroke="#54c814" stroke-width="9" stroke-linecap="round"><path d="M178 44v-15M178 122v16M139 83h-16M217 83h16M151 56l-11-11M205 56l11-11M151 110l-11 11M205 110l11 11"/><path d="M181 120v-10M181 178v10M153 150h-10M209 150h10" stroke-width="7"/></g><g fill="#bff7ff"><circle cx="74" cy="77" r="14"/><circle cx="48" cy="126" r="10"/><circle cx="83" cy="213" r="11"/><circle cx="223" cy="134" r="10"/></g><path d="M41 157C58 87 117 43 189 38" fill="none" stroke="#fff" stroke-width="12" stroke-linecap="round" opacity=".82"/><path d="M32 181C82 166 138 145 220 129" fill="none" stroke="#fff" stroke-width="10" stroke-linecap="round" opacity=".74"/></g></svg>