<svg xmlns="http://www.w3.org/2000/svg" width="1600" height="1000" viewBox="0 0 1600 1000" role="img" aria-label="VitaCoat hero panel"><defs><linearGradient id="bg" x1="0" y1="0" x2="1" y2="1"><stop offset="0%" stop-color="#eef2ff"/><stop offset="100%" stop-color="#dbe5ff"/></linearGradient><linearGradient id="orb" x1="0" y1="0" x2="1" y2="1"><stop offset="0%" stop-color="#77e7ff"/><stop offset="100%" stop-color="#4950bc"/></linearGradient></defs><rect width="1600" height="1000" rx="48" fill="url(#bg)"/><circle cx="1230" cy="300" r="220" fill="#ffffff" opacity="0.75"/><circle cx="1260" cy="340" r="170" fill="#d9ff9a" opacity="0.7"/><circle cx="1350" cy="550" r="84" fill="#71f0ff" opacity="0.9"/><circle cx="1120" cy="610" r="116" fill="#7ae0ff" opacity="0.9"/><path d="M1050 160c180 20 314 115 392 286 31 67 49 138 53 214-73 39-155 57-250 54-155-5-291-56-407-154 6-123 45-232 116-327 27-35 59-60 96-73z" fill="#ffffff" opacity="0.83"/><rect x="110" y="114" width="520" height="88" rx="24" fill="#ffffff" opacity="0.94"/><text x="170" y="168" fill="#171717" font-family="Inter, Arial, sans-serif" font-size="48" font-weight="800">VitaCoat</text><text x="170" y="235" fill="#4950bc" font-family="Inter, Arial, sans-serif" font-size="66" font-weight="800">Persistent Hygienic Protection</text><text x="170" y="315" fill="#171717" font-family="Inter, Arial, sans-serif" font-size="50" font-weight="700">for High-Touch Hard Surfaces</text><text x="170" y="396" fill="#5d6169" font-family="Inter, Arial, sans-serif" font-size="28">Transparent antimicrobial coating built for hard, non-porous environments</text><text x="170" y="438" fill="#5d6169" font-family="Inter, Arial, sans-serif" font-size="28">where hygiene continuity matters between routine cleaning events.</text><rect x="170" y="520" width="380" height="86" rx="22" fill="#4950bc"/><text x="222" y="575" fill="#ffffff" font-family="Inter, Arial, sans-serif" font-size="30" font-weight="700">Technical review ready</text><rect x="170" y="650" width="620" height="182" rx="30" fill="#ffffff" opacity="0.92"/><text x="220" y="718" fill="#171717" font-family="Inter, Arial, sans-serif" font-size="30" font-weight="800">Validated technical themes</text><text x="220" y="770" fill="#4950bc" font-family="Inter, Arial, sans-serif" font-size="25" font-weight="700">EN-backed proof • up to six months • hard, non-porous surfaces</text><text x="220" y="812" fill="#5d6169" font-family="Inter, Arial, sans-serif" font-size="24">Healthcare • food processing • public facilities • education/offices • electronics</text><circle cx="1260" cy="340" r="98" fill="url(#orb)" opacity="0.9"/><circle cx="1120" cy="610" r="56" fill="#1fa8ff" opacity="0.95"/><circle cx="1350" cy="550" r="42" fill="#8fef4f" opacity="0.95"/></svg>