<svg xmlns="http://www.w3.org/2000/svg" viewBox="0 0 1200 820" role="img" aria-labelledby="title desc">
<title id="title">VitaCoat legal and claim-boundary illustration</title>
<desc id="desc">Illustration of documentation, claim boundaries and technical review controls.</desc>
<defs>
  <linearGradient id="bg" x1="0" x2="1" y1="0" y2="1"><stop offset="0" stop-color="#f5f7ff"/><stop offset="1" stop-color="#e7fff6"/></linearGradient>
  <linearGradient id="panel" x1="0" x2="1"><stop offset="0" stop-color="#4950bc"/><stop offset="1" stop-color="#23a887"/></linearGradient>
</defs>
<rect width="1200" height="820" rx="44" fill="url(#bg)"/>
<circle cx="960" cy="150" r="96" fill="#d7f5ea"/>
<circle cx="150" cy="680" r="124" fill="#e3e7ff"/>
<rect x="230" y="120" width="740" height="540" rx="34" fill="#fff" stroke="#d6dcf8" stroke-width="4"/>
<rect x="280" y="175" width="300" height="42" rx="12" fill="#4950bc" opacity=".15"/>
<rect x="280" y="250" width="560" height="24" rx="12" fill="#d9defa"/>
<rect x="280" y="300" width="500" height="24" rx="12" fill="#d9defa"/>
<rect x="280" y="350" width="530" height="24" rx="12" fill="#d9defa"/>
<rect x="280" y="430" width="260" height="120" rx="22" fill="#f4f7ff" stroke="#cfd7ff"/>
<rect x="610" y="430" width="260" height="120" rx="22" fill="#f1fff9" stroke="#bce8dc"/>
<path d="M410 500l42 42 82-92" fill="none" stroke="#23a887" stroke-width="18" stroke-linecap="round" stroke-linejoin="round"/>
<path d="M705 450l75 75m0-75l-75 75" fill="none" stroke="#ef6b6b" stroke-width="16" stroke-linecap="round"/>
<path d="M600 108l142 68v130c0 116-75 206-142 238-67-32-142-122-142-238V176z" fill="url(#panel)" opacity=".95"/>
<path d="M600 188v250" stroke="#fff" stroke-width="22" stroke-linecap="round"/>
<circle cx="600" cy="500" r="16" fill="#fff"/>
<text x="600" y="730" text-anchor="middle" font-family="Inter, Arial, sans-serif" font-size="34" font-weight="800" fill="#26315f">Claim boundaries · Documentation first · Technical review</text>
</svg>
