<svg xmlns="http://www.w3.org/2000/svg" width="1600" height="1000" viewBox="0 0 1600 1000">
  <defs>
    <linearGradient id="cbg" x1="0" x2="1" y1="0" y2="1">
      <stop offset="0%" stop-color="#ffffff"/>
      <stop offset="100%" stop-color="#eef2ff"/>
    </linearGradient>
    <linearGradient id="blue" x1="0" x2="1">
      <stop offset="0%" stop-color="#6b74f4"/>
      <stop offset="100%" stop-color="#4950bc"/>
    </linearGradient>
  </defs>
  <rect width="1600" height="1000" rx="48" fill="url(#cbg)"/>
  <rect x="100" y="92" width="620" height="816" rx="34" fill="#ffffff" opacity="0.98"/>
  <text x="152" y="174" fill="#4950bc" font-family="Arial, sans-serif" font-size="28" font-weight="700">CONTACT</text>
  <text x="152" y="268" fill="#171717" font-family="Arial, sans-serif" font-size="76" font-weight="800">Start a VitaCoat</text>
  <text x="152" y="350" fill="#171717" font-family="Arial, sans-serif" font-size="76" font-weight="800">Technical Review</text>
  <text x="152" y="446" fill="#5d6169" font-family="Arial, sans-serif" font-size="28">Use the correct route for document requests, technical</text>
  <text x="152" y="484" fill="#5d6169" font-family="Arial, sans-serif" font-size="28">interpretation, pilot review, or commercial rollout.</text>
  <rect x="152" y="614" width="250" height="76" rx="18" fill="url(#blue)"/>
  <text x="206" y="662" fill="#ffffff" font-family="Arial, sans-serif" font-size="30" font-weight="700">Technical team</text>
  <rect x="430" y="614" width="250" height="76" rx="18" fill="#ffffff" stroke="#4950bc" stroke-width="3"/>
  <text x="474" y="662" fill="#4950bc" font-family="Arial, sans-serif" font-size="30" font-weight="700">Documents desk</text>
  <g transform="translate(810 92)">
    <rect width="690" height="816" rx="34" fill="#eef2ff"/>
    <circle cx="520" cy="184" r="148" fill="#f7f7ef"/>
    <circle cx="528" cy="182" r="76" fill="url(#blue)" opacity="0.92"/>
    <circle cx="610" cy="328" r="58" fill="#cde86e" opacity="0.95"/>
    <circle cx="420" cy="366" r="78" fill="#c8eff8" opacity="0.92"/>
    <circle cx="434" cy="350" r="42" fill="#27a0ee" opacity="0.95"/>
    <path d="M388 52c90 0 186 8 258 26l-30 120c-86-20-168-28-244-26-41 1-81 3-120 8l-38-114c56-8 114-13 174-14z" fill="#ffffff" opacity="0.95"/>
    <text x="114" y="132" fill="#171717" font-family="Arial, sans-serif" font-size="48" font-weight="700">VitaCoat</text>
    <text x="114" y="206" fill="#4950bc" font-family="Arial, sans-serif" font-size="62" font-weight="800">Persistent Hygienic Protection</text>
    <text x="114" y="268" fill="#171717" font-family="Arial, sans-serif" font-size="38" font-weight="700">for High-Touch Hard Surfaces</text>
  </g>
</svg>