<svg xmlns="http://www.w3.org/2000/svg" width="1600" height="1000" viewBox="0 0 1600 1000"><defs><linearGradient id="bg" x1="0" x2="1" y1="0" y2="1"><stop offset="0%" stop-color="#f8fbff"/><stop offset="100%" stop-color="#e9f0ff"/></linearGradient><linearGradient id="shield" x1="0" x2="1" y1="0" y2="1"><stop offset="0%" stop-color="#7380ff"/><stop offset="100%" stop-color="#3f4cbf"/></linearGradient><radialGradient id="a" cx="50%" cy="50%" r="50%"><stop offset="0%" stop-color="#9cff94"/><stop offset="100%" stop-color="#2f8a49"/></radialGradient><radialGradient id="b" cx="50%" cy="50%" r="50%"><stop offset="0%" stop-color="#9be9ff"/><stop offset="100%" stop-color="#2b6cb7"/></radialGradient><radialGradient id="c" cx="50%" cy="50%" r="50%"><stop offset="0%" stop-color="#e1ff9c"/><stop offset="100%" stop-color="#5b9130"/></radialGradient></defs><rect width="1600" height="1000" rx="40" fill="url(#bg)"/><ellipse cx="1120" cy="610" rx="430" ry="230" fill="#dfe8ff" opacity="0.9"/><g opacity="0.95"><g transform="translate(920 440)"><circle r="62" fill="url(#a)"/><g stroke="#84ff93" stroke-width="9" stroke-linecap="round"><path d="M0 -92v-28"/><path d="M0 92v28"/><path d="M92 0h28"/><path d="M-92 0h-28"/><path d="M64 -64l20-20"/><path d="M-64 64l-20 20"/><path d="M64 64l20 20"/><path d="M-64 -64l-20 -20"/></g></g><g transform="translate(1270 520)"><circle r="70" fill="url(#b)"/><g stroke="#8fd7ff" stroke-width="9" stroke-linecap="round"><path d="M0 -102v-28"/><path d="M0 102v28"/><path d="M102 0h28"/><path d="M-102 0h-28"/><path d="M72 -72l22-22"/><path d="M-72 72l-22 22"/><path d="M72 72l22 22"/><path d="M-72 -72l-22 -22"/></g></g><g transform="translate(1100 735)"><circle r="78" fill="url(#c)"/><g stroke="#deff98" stroke-width="9" stroke-linecap="round"><path d="M0 -112v-30"/><path d="M0 112v30"/><path d="M112 0h30"/><path d="M-112 0h-30"/><path d="M80 -80l24-24"/><path d="M-80 80l-24 24"/><path d="M80 80l24 24"/><path d="M-80 -80l-24 -24"/></g></g></g><g><path d="M1132 296c124 92 198 221 198 350 0 82-28 160-82 228-34 42-94 42-128 0-54-68-82-146-82-228 0-129 74-258 198-350 22-16 51-16 74 0z" fill="url(#shield)" opacity="0.92"/><path d="M1110 602l76 76 154-174" fill="none" stroke="#ffffff" stroke-width="32" stroke-linecap="round" stroke-linejoin="round"/></g></svg>