<svg xmlns="http://www.w3.org/2000/svg" width="1600" height="1000" viewBox="0 0 1600 1000">
  <defs>
    <linearGradient id="a1" x1="0" x2="1" y1="0" y2="1">
      <stop offset="0%" stop-color="#ffffff"/>
      <stop offset="100%" stop-color="#eef2ff"/>
    </linearGradient>
  </defs>
  <rect width="1600" height="1000" rx="48" fill="url(#a1)"/>
  <rect x="110" y="90" width="540" height="820" rx="32" fill="#ffffff" opacity="0.98"/>
  <text x="162" y="174" fill="#171717" font-family="Arial, sans-serif" font-size="52" font-weight="700">Applications</text>
  <text x="162" y="250" fill="#4950bc" font-family="Arial, sans-serif" font-size="62" font-weight="800">Operational fit by environment</text>
  <text x="162" y="336" fill="#5d6169" font-family="Arial, sans-serif" font-size="29">Healthcare, food processing, public facilities,</text>
  <text x="162" y="374" fill="#5d6169" font-family="Arial, sans-serif" font-size="29">education/offices, and electronics touchpoints.</text>
  <g transform="translate(780 120)">
    <rect width="680" height="760" rx="34" fill="#f5f8ff"/>
    <rect x="114" y="66" width="236" height="520" rx="24" fill="#dcebf4"/>
    <rect x="366" y="92" width="188" height="448" rx="20" fill="#eaf5ef"/>
    <rect x="104" y="88" width="128" height="250" rx="10" fill="#c5d7e0"/>
    <rect x="124" y="120" width="90" height="194" rx="8" fill="#87a8b5"/>
    <circle cx="440" cy="202" r="48" fill="#f0d7c7"/>
    <path d="M382 296c18-66 40-112 60-112 24 0 56 42 82 112l18 122-178 6 18-128z" fill="#ffffff"/>
    <path d="M388 298c18-54 34-84 48-84 20 0 44 28 64 84l10 72-132 2 10-74z" fill="#2a3944"/>
    <rect x="516" y="248" width="52" height="168" rx="12" fill="#ffffff"/>
    <rect x="430" y="300" width="96" height="36" rx="18" fill="#9fd0db"/>
    <path d="M454 174c18-54 32-82 48-82 20 0 40 28 56 80l-40 26-76-24 12-0z" fill="#272e34"/>
    <rect x="208" y="596" width="280" height="94" rx="18" fill="#ffffff"/>
    <text x="242" y="650" fill="#4950bc" font-family="Arial, sans-serif" font-size="30" font-weight="700">Application review by cluster</text>
  </g>
</svg>