<svg xmlns="http://www.w3.org/2000/svg" width="1600" height="1000" viewBox="0 0 1600 1000">
  <defs>
    <linearGradient id="docbg" x1="0" x2="1" y1="0" y2="1">
      <stop offset="0%" stop-color="#f8fbff"/>
      <stop offset="100%" stop-color="#eef2ff"/>
    </linearGradient>
    <linearGradient id="metal" x1="0" x2="1">
      <stop offset="0%" stop-color="#bcc3cc"/>
      <stop offset="30%" stop-color="#f5f7fa"/>
      <stop offset="55%" stop-color="#d6dde6"/>
      <stop offset="100%" stop-color="#8e98a6"/>
    </linearGradient>
  </defs>
  <rect width="1600" height="1000" rx="48" fill="url(#docbg)"/>
  <g transform="translate(120 120)">
    <rect width="620" height="760" rx="32" fill="#ffffff" opacity="0.98"/>
    <text x="48" y="86" fill="#4950bc" font-family="Arial, sans-serif" font-size="28" font-weight="700">DOCUMENTATION HUB</text>
    <text x="48" y="182" fill="#171717" font-family="Arial, sans-serif" font-size="76" font-weight="800">Technical</text>
    <text x="48" y="264" fill="#171717" font-family="Arial, sans-serif" font-size="76" font-weight="800">Resources for</text>
    <text x="48" y="346" fill="#171717" font-family="Arial, sans-serif" font-size="76" font-weight="800">Review,</text>
    <text x="48" y="428" fill="#171717" font-family="Arial, sans-serif" font-size="76" font-weight="800">Specification, and</text>
    <text x="48" y="510" fill="#171717" font-family="Arial, sans-serif" font-size="76" font-weight="800">Procurement</text>
    <text x="48" y="594" fill="#5d6169" font-family="Arial, sans-serif" font-size="28">Structured technical resources for specification engineers,</text>
    <text x="48" y="632" fill="#5d6169" font-family="Arial, sans-serif" font-size="28">procurement teams, and controlled review workflows.</text>
  </g>
  <g transform="translate(840 120)">
    <rect width="640" height="760" rx="32" fill="#f3f6fb"/>
    <path d="M430 88c70 14 118 72 118 148 0 92-72 166-166 166-48 0-92-18-122-50l-56 26-32-64 64-28c-8-18-12-38-12-58 0-96 74-172 172-172 12 0 24 0 34 2z" fill="url(#metal)" opacity="0.94"/>
    <path d="M378 118c56 12 92 60 92 118 0 74-58 132-132 132-36 0-68-12-94-34l-18 8-14-28 30-14c-6-12-8-24-8-38 0-76 58-136 136-136 4 0 6 0 8 0z" fill="#cad1da" opacity="0.45"/>
    <path d="M472 74c40 18 70 52 86 96" stroke="#ffffff" stroke-width="14" opacity="0.7"/>
  </g>
</svg>